<svg width="35" height="36" viewBox="0 0 35 36" fill="none" xmlns="http://www.w3.org/2000/svg">
<path d="M27.7667 10.3887H16.0334V20.6553H4.30003V7.45532H1.3667V29.4553H4.30003V25.0553H30.7V29.4553H33.6334V16.2553C33.6334 14.6994 33.0153 13.2072 31.9151 12.107C30.8148 11.0067 29.3226 10.3887 27.7667 10.3887ZM10.1667 19.1887C11.3337 19.1887 12.4528 18.7251 13.278 17.8999C14.1031 17.0748 14.5667 15.9556 14.5667 14.7887C14.5667 13.6217 14.1031 12.5025 13.278 11.6774C12.4528 10.8522 11.3337 10.3887 10.1667 10.3887C8.99975 10.3887 7.88059 10.8522 7.05543 11.6774C6.23027 12.5025 5.7667 13.6217 5.7667 14.7887C5.7667 15.9556 6.23027 17.0748 7.05543 17.8999C7.88059 18.7251 8.99975 19.1887 10.1667 19.1887Z" fill="#21225A"/>
</svg>
