<svg width="35" height="36" viewBox="0 0 35 36" fill="none" xmlns="http://www.w3.org/2000/svg">
<path d="M5.10408 6.48558C5.10421 5.93152 5.29729 5.39479 5.65015 4.96761C6.00302 4.54044 6.49363 4.24949 7.03771 4.14474C7.58179 4.04 8.14536 4.12801 8.63159 4.39364C9.11783 4.65928 9.49638 5.08596 9.70221 5.60038L9.91221 6.12246C9.01349 6.78053 8.31647 7.67656 7.89971 8.70954C7.30816 10.16 7.29772 11.7826 7.87054 13.2406C7.92437 13.3769 8.00505 13.501 8.10777 13.6055C8.2105 13.71 8.33318 13.7928 8.46852 13.849C8.60387 13.9052 8.74913 13.9336 8.89568 13.9325C9.04222 13.9315 9.18706 13.901 9.32159 13.8429L18.0133 10.1008C18.2742 9.98863 18.4813 9.77938 18.5907 9.51728C18.7001 9.25518 18.7032 8.96081 18.5995 8.69642C18.3217 7.97886 17.9037 7.32388 17.3698 6.76975C16.836 6.21562 16.197 5.77346 15.4903 5.46913C14.3553 4.9817 13.0909 4.88326 11.8941 5.18913L11.7337 4.78808C11.3392 3.80139 10.6134 2.98291 9.68091 2.47333C8.74844 1.96375 7.6676 1.79489 6.62414 1.99578C5.58068 2.19667 4.63978 2.75476 3.96317 3.57413C3.28656 4.3935 2.9165 5.42296 2.91659 6.48558V16.497H2.552C2.26192 16.497 1.98372 16.6123 1.7786 16.8174C1.57349 17.0225 1.45825 17.3007 1.45825 17.5908C1.45825 17.8809 1.57349 18.1591 1.7786 18.3642C1.98372 18.5693 2.26192 18.6845 2.552 18.6845H2.91659V19.2022C2.91659 19.7491 2.91659 20.07 2.93992 20.4272C3.147 23.6895 4.90867 26.701 7.46367 28.6697L7.40679 28.7689L5.94846 31.6856C5.82156 31.9448 5.80225 32.2437 5.89474 32.517C5.98723 32.7904 6.18403 33.0162 6.44224 33.1451C6.70046 33.274 6.99916 33.2956 7.27326 33.2053C7.54735 33.1149 7.77462 32.9199 7.90554 32.6627L9.31721 29.8408C10.4927 30.4395 11.7679 30.8176 13.0797 30.9564C13.437 30.9929 13.6543 31.0002 14.0247 31.0147H14.0349C15.1141 31.0556 16.1699 31.0804 17.1353 31.0804C18.1008 31.0804 19.1566 31.0556 20.2358 31.0147H20.246C20.6164 31.0002 20.8351 30.9929 21.191 30.9564C22.5028 30.8176 23.778 30.4395 24.9535 29.8408L26.3651 32.6641C26.4294 32.7926 26.5183 32.9072 26.6268 33.0014C26.7354 33.0955 26.8614 33.1673 26.9977 33.2128C27.134 33.2582 27.2779 33.2763 27.4212 33.2661C27.5645 33.256 27.7044 33.2176 27.8329 33.1534C27.9614 33.0891 28.076 33.0002 28.1702 32.8917C28.2643 32.7831 28.3361 32.6571 28.3816 32.5208C28.427 32.3845 28.4451 32.2406 28.435 32.0973C28.4248 31.954 28.3865 31.8141 28.3222 31.6856L26.8639 28.7689L26.8085 28.6697C29.362 26.701 31.1251 23.6881 31.3322 20.4272C31.3541 20.07 31.3541 19.7491 31.3541 19.2022V19.1468C31.3541 19.0593 31.3541 18.9675 31.3483 18.8843C31.3437 18.8175 31.3369 18.7509 31.3278 18.6845H31.7187C32.0087 18.6845 32.2869 18.5693 32.4921 18.3642C32.6972 18.1591 32.8124 17.8809 32.8124 17.5908C32.8124 17.3007 32.6972 17.0225 32.4921 16.8174C32.2869 16.6123 32.0087 16.497 31.7187 16.497H5.10408V6.48558Z" fill="#21225A"/>
</svg>
