<svg width="81" height="37" viewBox="0 0 81 37" fill="none" xmlns="http://www.w3.org/2000/svg">
<path d="M30.7753 34.4553L21.3592 25.0392L24.9709 21.4276L34.387 30.8437L30.7753 34.4553ZM7.04164 34.4553L3.42999 30.8437L15.2968 18.9768L12.3731 16.0531L11.1692 17.257L8.97645 15.0642V18.5899L7.77256 19.7937L2.57007 14.5912L3.77395 13.3874H7.29961L5.14982 11.2376L11.2552 5.13216C11.8285 4.55888 12.4448 4.14326 13.104 3.88528C13.7633 3.62731 14.4369 3.49832 15.1249 3.49832C15.8128 3.49832 16.4864 3.62731 17.1457 3.88528C17.8049 4.14326 18.4212 4.55888 18.9945 5.13216L15.0389 9.08778L17.1887 11.2376L15.9848 12.4415L18.9085 15.3652L22.7781 11.4955C22.6635 11.1802 22.5706 10.8506 22.4995 10.5066C22.4284 10.1627 22.3923 9.81871 22.3911 9.47474C22.3911 7.78357 22.9719 6.35726 24.1333 5.1958C25.2948 4.03433 26.7205 3.45418 28.4106 3.45532C28.8405 3.45532 29.2493 3.49832 29.6368 3.58431C30.0243 3.6703 30.4182 3.79929 30.8183 3.97127L26.5617 8.22786L29.6574 11.3236L33.914 7.06697C34.1147 7.46827 34.2511 7.86211 34.3234 8.2485C34.3956 8.63489 34.4311 9.04364 34.43 9.47474C34.43 11.1659 33.8498 12.5922 32.6895 13.7537C31.5292 14.9151 30.1029 15.4953 28.4106 15.4942C28.0666 15.4942 27.7226 15.4655 27.3787 15.4082C27.0347 15.3508 26.7051 15.2505 26.3898 15.1072L7.04164 34.4553Z" fill="#21225A"/>
<path d="M50.6041 6.98558C50.6042 6.43152 50.7973 5.89479 51.1502 5.46761C51.503 5.04044 51.9936 4.74949 52.5377 4.64474C53.0818 4.54 53.6454 4.62801 54.1316 4.89364C54.6178 5.15928 54.9964 5.58596 55.2022 6.10038L55.4122 6.62246C54.5135 7.28053 53.8165 8.17656 53.3997 9.20954C52.8082 10.66 52.7977 12.2826 53.3705 13.7406C53.4244 13.8769 53.505 14.001 53.6078 14.1055C53.7105 14.21 53.8332 14.2928 53.9685 14.349C54.1039 14.4052 54.2491 14.4336 54.3957 14.4325C54.5422 14.4315 54.6871 14.401 54.8216 14.3429L63.5133 10.6008C63.7742 10.4886 63.9813 10.2794 64.0907 10.0173C64.2001 9.75518 64.2032 9.46081 64.0995 9.19642C63.8217 8.47886 63.4037 7.82388 62.8698 7.26975C62.336 6.71562 61.697 6.27346 60.9903 5.96913C59.8553 5.4817 58.5909 5.38326 57.3941 5.68913L57.2337 5.28808C56.8392 4.30139 56.1134 3.48291 55.1809 2.97333C54.2484 2.46375 53.1676 2.29489 52.1241 2.49578C51.0807 2.69667 50.1398 3.25476 49.4632 4.07413C48.7866 4.8935 48.4165 5.92296 48.4166 6.98558V16.997H48.052C47.7619 16.997 47.4837 17.1123 47.2786 17.3174C47.0735 17.5225 46.9583 17.8007 46.9583 18.0908C46.9583 18.3809 47.0735 18.6591 47.2786 18.8642C47.4837 19.0693 47.7619 19.1845 48.052 19.1845H48.4166V19.7022C48.4166 20.2491 48.4166 20.57 48.4399 20.9272C48.647 24.1895 50.4087 27.201 52.9637 29.1697L52.9068 29.2689L51.4485 32.1856C51.3216 32.4448 51.3022 32.7437 51.3947 33.017C51.4872 33.2904 51.684 33.5162 51.9422 33.6451C52.2005 33.774 52.4992 33.7956 52.7733 33.7053C53.0474 33.6149 53.2746 33.4199 53.4055 33.1627L54.8172 30.3408C55.9927 30.9395 57.2679 31.3176 58.5797 31.4564C58.937 31.4929 59.1543 31.5002 59.5247 31.5147H59.5349C60.6141 31.5556 61.6699 31.5804 62.6353 31.5804C63.6008 31.5804 64.6566 31.5556 65.7358 31.5147H65.746C66.1164 31.5002 66.3351 31.4929 66.691 31.4564C68.0028 31.3176 69.278 30.9395 70.4535 30.3408L71.8651 33.1641C71.9294 33.2926 72.0183 33.4072 72.1268 33.5014C72.2354 33.5955 72.3614 33.6673 72.4977 33.7128C72.634 33.7582 72.7779 33.7763 72.9212 33.7661C73.0645 33.756 73.2044 33.7176 73.3329 33.6534C73.4614 33.5891 73.576 33.5002 73.6702 33.3917C73.7643 33.2831 73.8361 33.1571 73.8816 33.0208C73.927 32.8845 73.9451 32.7406 73.935 32.5973C73.9248 32.454 73.8865 32.3141 73.8222 32.1856L72.3639 29.2689L72.3085 29.1697C74.862 27.201 76.6251 24.1881 76.8322 20.9272C76.8541 20.57 76.8541 20.2491 76.8541 19.7022V19.6468C76.8541 19.5593 76.8541 19.4675 76.8483 19.3843C76.8437 19.3175 76.8369 19.2509 76.8278 19.1845H77.2187C77.5087 19.1845 77.7869 19.0693 77.9921 18.8642C78.1972 18.6591 78.3124 18.3809 78.3124 18.0908C78.3124 17.8007 78.1972 17.5225 77.9921 17.3174C77.7869 17.1123 77.5087 16.997 77.2187 16.997H50.6041V6.98558Z" fill="#21225A"/>
</svg>
