<svg width="81" height="36" viewBox="0 0 81 36" fill="none" xmlns="http://www.w3.org/2000/svg">
<path d="M30.7753 34L21.3592 24.5839L24.9709 20.9723L34.387 30.3883L30.7753 34ZM7.04164 34L3.42999 30.3883L15.2968 18.5215L12.3731 15.5978L11.1692 16.8017L8.97645 14.6089V18.1345L7.77256 19.3384L2.57007 14.1359L3.77395 12.932H7.29961L5.14982 10.7822L11.2552 4.67684C11.8285 4.10356 12.4448 3.68794 13.104 3.42996C13.7633 3.17199 14.4369 3.043 15.1249 3.043C15.8128 3.043 16.4864 3.17199 17.1457 3.42996C17.8049 3.68794 18.4212 4.10356 18.9945 4.67684L15.0389 8.63246L17.1887 10.7822L15.9848 11.9861L18.9085 14.9098L22.7781 11.0402C22.6635 10.7249 22.5706 10.3953 22.4995 10.0513C22.4284 9.70735 22.3923 9.36339 22.3911 9.01942C22.3911 7.32825 22.9719 5.90193 24.1333 4.74047C25.2948 3.57901 26.7205 2.99886 28.4106 3C28.8405 3 29.2493 3.043 29.6368 3.12899C30.0243 3.21498 30.4182 3.34397 30.8183 3.51595L26.5617 7.77254L29.6574 10.8682L33.914 6.61165C34.1147 7.01295 34.2511 7.40679 34.3234 7.79318C34.3956 8.17957 34.4311 8.58831 34.43 9.01942C34.43 10.7106 33.8498 12.1369 32.6895 13.2984C31.5292 14.4598 30.1029 15.04 28.4106 15.0388C28.0666 15.0388 27.7226 15.0102 27.3787 14.9528C27.0347 14.8955 26.7051 14.7952 26.3898 14.6519L7.04164 34Z" fill="#21225A"/>
<g clip-path="url(#clip0_63_773)">
<path d="M47.75 7H79.25C80.2125 7 81 7.76154 81 8.69231C81 9.62308 80.2125 10.3846 79.25 10.3846V29H75.75V25.6154H68.75V29H65.25V10.3846H51.25V29H47.75V10.3846C46.7875 10.3846 46 9.62308 46 8.69231C46 7.76154 46.7875 7 47.75 7ZM70.5 14.6154V15.4615H74V14.6154C74 14.1415 73.615 13.7692 73.125 13.7692H71.375C70.885 13.7692 70.5 14.1415 70.5 14.6154ZM70.5 21.3846V22.2308H74V21.3846C74 20.9108 73.615 20.5385 73.125 20.5385H71.375C70.885 20.5385 70.5 20.9108 70.5 21.3846Z" fill="#21225A"/>
</g>
<defs>
<clipPath id="clip0_63_773">
<rect width="35" height="35" fill="white" transform="translate(45.5 0.5)"/>
</clipPath>
</defs>
</svg>
