<svg width="35" height="36" viewBox="0 0 35 36" fill="none" xmlns="http://www.w3.org/2000/svg">
<path d="M2.76921 7.45532H33.2308C34.1615 7.45532 34.9231 8.21686 34.9231 9.14763C34.9231 10.0784 34.1615 10.8399 33.2308 10.8399V29.4553H29.8461V26.0707H23.0769V29.4553H19.6923V10.8399H6.15383V29.4553H2.76921V10.8399C1.83844 10.8399 1.0769 10.0784 1.0769 9.14763C1.0769 8.21686 1.83844 7.45532 2.76921 7.45532ZM24.7692 15.0707V15.9169H28.1538V15.0707C28.1538 14.5969 27.7815 14.2246 27.3077 14.2246H25.6154C25.1415 14.2246 24.7692 14.5969 24.7692 15.0707ZM24.7692 21.8399V22.6861H28.1538V21.8399C28.1538 21.3661 27.7815 20.9938 27.3077 20.9938H25.6154C25.1415 20.9938 24.7692 21.3661 24.7692 21.8399Z" fill="#21225A"/>
</svg>
