<svg width="35" height="35" viewBox="0 0 35 35" fill="none" xmlns="http://www.w3.org/2000/svg">
<path d="M22.9525 16.0475C24.2627 17.3627 24.9983 19.1436 24.9983 21C24.9983 22.8564 24.2627 24.6373 22.9525 25.9525C21.6373 27.2627 19.8564 27.9983 18 27.9983C16.1436 27.9983 14.3627 27.2627 13.0475 25.9525L22.9525 16.0475ZM7.5 0H28.5C29.4283 0 30.3185 0.368749 30.9749 1.02513C31.6313 1.6815 32 2.57174 32 3.5V31.5C32 32.4283 31.6313 33.3185 30.9749 33.9749C30.3185 34.6312 29.4283 35 28.5 35H7.5C6.57174 35 5.6815 34.6312 5.02513 33.9749C4.36875 33.3185 4 32.4283 4 31.5V3.5C4 2.57174 4.36875 1.6815 5.02513 1.02513C5.6815 0.368749 6.57174 0 7.5 0ZM9.25 3.5C8.78587 3.5 8.34075 3.68437 8.01256 4.01256C7.68437 4.34075 7.5 4.78587 7.5 5.25C7.5 5.71413 7.68437 6.15925 8.01256 6.48744C8.34075 6.81563 8.78587 7 9.25 7C9.71413 7 10.1592 6.81563 10.4874 6.48744C10.8156 6.15925 11 5.71413 11 5.25C11 4.78587 10.8156 4.34075 10.4874 4.01256C10.1592 3.68437 9.71413 3.5 9.25 3.5ZM14.5 3.5C14.0359 3.5 13.5908 3.68437 13.2626 4.01256C12.9344 4.34075 12.75 4.78587 12.75 5.25C12.75 5.71413 12.9344 6.15925 13.2626 6.48744C13.5908 6.81563 14.0359 7 14.5 7C14.9641 7 15.4092 6.81563 15.7374 6.48744C16.0656 6.15925 16.25 5.71413 16.25 5.25C16.25 4.78587 16.0656 4.34075 15.7374 4.01256C15.4092 3.68437 14.9641 3.5 14.5 3.5ZM18 10.5C15.2152 10.5 12.5445 11.6062 10.5754 13.5754C8.60625 15.5445 7.5 18.2152 7.5 21C7.5 23.7848 8.60625 26.4555 10.5754 28.4246C12.5445 30.3938 15.2152 31.5 18 31.5C20.7848 31.5 23.4555 30.3938 25.4246 28.4246C27.3938 26.4555 28.5 23.7848 28.5 21C28.5 18.2152 27.3938 15.5445 25.4246 13.5754C23.4555 11.6062 20.7848 10.5 18 10.5Z" fill="#21225A"/>
</svg>
