<svg width="20" height="20" viewBox="0 0 20 20" fill="none" xmlns="http://www.w3.org/2000/svg">
<g clip-path="url(#clip0_174_293)">
<path d="M4.99992 10.8334H1.66659C1.16659 10.8334 0.833252 11.1667 0.833252 11.6667V18.3334C0.833252 18.8334 1.16659 19.1667 1.66659 19.1667H4.99992C5.49992 19.1667 5.83325 18.8334 5.83325 18.3334V11.6667C5.83325 11.1667 5.49992 10.8334 4.99992 10.8334ZM18.3333 7.50004H14.9999C14.4999 7.50004 14.1666 7.83337 14.1666 8.33337V18.3334C14.1666 18.8334 14.4999 19.1667 14.9999 19.1667H18.3333C18.8333 19.1667 19.1666 18.8334 19.1666 18.3334V8.33337C19.1666 7.83337 18.8333 7.50004 18.3333 7.50004ZM11.6666 0.833374H8.33325C7.83325 0.833374 7.49992 1.16671 7.49992 1.66671V18.3334C7.49992 18.8334 7.83325 19.1667 8.33325 19.1667H11.6666C12.1666 19.1667 12.4999 18.8334 12.4999 18.3334V1.66671C12.4999 1.16671 12.1666 0.833374 11.6666 0.833374Z" fill="#FCBE09"/>
</g>
<defs>
<clipPath id="clip0_174_293">
<rect width="20" height="20" fill="white"/>
</clipPath>
</defs>
</svg>
