<svg width="96" height="95" viewBox="0 0 96 95" fill="none" xmlns="http://www.w3.org/2000/svg">
<path d="M48 95C35.4022 95 23.3204 89.9956 14.4124 81.0876C5.50445 72.1796 0.5 60.0978 0.5 47.5C0.5 34.9022 5.50445 22.8204 14.4124 13.9124C23.3204 5.00445 35.4022 0 48 0C60.5978 0 72.6796 5.00445 81.5876 13.9124C90.4956 22.8204 95.5 34.9022 95.5 47.5C95.5 60.0978 90.4956 72.1796 81.5876 81.0876C72.6796 89.9956 60.5978 95 48 95ZM38.5 71.25L81.25 30.875L74.125 23.75L38.5 57L21.875 40.375L14.75 47.5L38.5 71.25Z" fill="#A7CF28"/>
</svg>
